<?xml version="1.0" encoding="UTF-8"?>
<svg width="700pt" height="700pt" version="1.1" viewBox="0 0 700 700" xmlns="http://www.w3.org/2000/svg" xmlns:xlink="http://www.w3.org/1999/xlink">
 <g>
  <path d="m606.66 303.32h-46.648c-12.891 0-23.34-10.449-23.34-23.324 0-12.879 10.449-23.336 23.34-23.336h46.648c12.887 0 23.336 10.457 23.336 23.336 0 12.875-10.422 23.324-23.336 23.324z" fill="#010101"/>
  <path d="m515.02 148.01c-9.1172 9.1055-23.918 9.1055-33.008 0-9.1094-9.1094-9.1094-23.883 0-33l33.008-32.996c9.0781-9.1094 23.883-9.1094 33 0 9.0781 9.1094 9.0781 23.883 0 32.996z" fill="#010101"/>
  <path d="m350.01 140c-77.336 0-140.02 62.68-140.02 140 0 77.312 62.691 140 140.02 140s139.99-62.684 139.99-140c0-77.324-62.668-140-139.99-140zm0 233.34c-51.535 0-93.34-41.797-93.34-93.336 0-51.547 41.793-93.336 93.34-93.336s93.324 41.789 93.324 93.336c0 51.535-41.789 93.336-93.324 93.336z" fill="#010101"/>
  <path d="m350.01 93.336c-12.891 0-23.336-10.457-23.336-23.336v-46.664c0-12.879 10.445-23.336 23.336-23.336s23.336 10.457 23.336 23.336v46.664c0 12.879-10.473 23.336-23.336 23.336z" fill="#010101"/>
  <path d="m185.01 148.01-32.996-33c-9.1094-9.1055-9.1094-23.883 0-32.996 9.1094-9.1094 23.883-9.1094 32.996 0l33 32.996c9.1055 9.1172 9.1055 23.891 0 33-9.1094 9.1094-23.883 9.1094-33 0z" fill="#010101"/>
  <path d="m163.34 280c0 12.875-10.457 23.324-23.336 23.324h-46.676c-12.879 0-23.324-10.449-23.324-23.324 0-12.879 10.457-23.336 23.324-23.336h46.676c12.891 0 23.336 10.457 23.336 23.336z" fill="#010101"/>
  <path d="m185.01 411.99c9.1172-9.1055 23.891-9.1055 33 0 9.1055 9.1055 9.1055 23.883 0 33l-33 32.988c-9.1055 9.1172-23.883 9.1172-32.996 0-9.1094-9.1016-9.1094-23.883 0-32.988z" fill="#010101"/>
  <path d="m350.01 466.66c12.891 0 23.336 10.438 23.336 23.324v46.676c0 12.887-10.445 23.336-23.336 23.336s-23.336-10.449-23.336-23.336v-46.676c0-12.887 10.445-23.324 23.336-23.324z" fill="#010101"/>
  <path d="m515.02 411.99 33 33c9.0781 9.1055 9.0781 23.891 0 32.988-9.1172 9.1172-23.918 9.1172-33 0l-33.008-32.988c-9.1094-9.1172-9.1094-23.895 0-33 9.0859-9.1172 23.863-9.1172 33.008 0z" fill="#010101"/>
 </g>
</svg>
