<?xml version="1.0" encoding="UTF-8"?>
<svg width="700pt" height="700pt" version="1.1" viewBox="0 0 700 700" xmlns="http://www.w3.org/2000/svg" xmlns:xlink="http://www.w3.org/1999/xlink">
 <g>
  <path d="m350.01 560c-154.65 0-280.01-125.36-280.01-279.99 0-154.65 125.36-280.01 280.01-280.01 17.617 0 34.797 1.8242 51.504 4.9453-3.0742 13.445-4.8477 27.367-4.8477 41.727 0 103.1 83.59 186.66 186.69 186.66 14.336 0 28.285-1.7734 41.727-4.8555 3.1016 16.727 4.9219 33.887 4.9219 51.527-0.003906 154.63-125.37 279.99-279.99 279.99zm-41.727-461.83c-82.977 18.973-144.94 93.082-144.94 181.84 0 103.08 83.57 186.66 186.66 186.66 88.715 0 162.86-61.965 181.81-144.94-113.26-21.098-202.46-110.29-223.54-223.56z" fill="#010101"/>
 </g>
</svg>
