<?xml version="1.0" encoding="UTF-8"?>
<svg width="700pt" height="700pt" version="1.1" viewBox="0 0 700 700" xmlns="http://www.w3.org/2000/svg" xmlns:xlink="http://www.w3.org/1999/xlink">
 <g>
  <path d="m254.54 540.91c-140.57 0-254.54-113.95-254.54-254.54 0-140.59 113.97-254.55 254.54-254.55 95.535 0 178.66 52.695 222.2 130.52 10.57-1.8008 21.285-3.2617 32.355-3.2617 105.44-0.003907 190.91 85.488 190.91 190.92 0 105.41-85.465 190.9-190.9 190.9h-254.56zm254.56-63.645c70.293 0 127.29-57 127.29-127.26 0-70.285-56.992-127.28-127.29-127.28-25.473 0-49.043 7.6523-68.965 20.547-19.578-84.582-95.035-147.81-185.6-147.81-105.42 0-190.89 85.469-190.89 190.92 0 105.43 85.477 190.9 190.9 190.9 57.551-0.007812 206.5-0.007812 254.56-0.007812z" fill="#010101"/>
 </g>
</svg>
