<?xml version="1.0" encoding="UTF-8"?>
<svg width="700pt" height="700pt" version="1.1" viewBox="0 0 700 700" xmlns="http://www.w3.org/2000/svg" xmlns:xlink="http://www.w3.org/1999/xlink">
 <g>
  <path d="m18.676 401.69c-4.1641-10.27-7.5195-20.91-10.312-31.82h691.64c0 10.891-1.0977 21.453-2.8711 31.82z" fill="#010101"/>
  <path d="m131.43 83.512c36.496-20.215 78.434-31.801 123.11-31.801 44.645 0 86.492 11.613 122.95 31.801z" fill="#010101"/>
  <path d="m2.2109 274.43c1.3516-10.852 3.4648-21.434 6.1523-31.801h642.72c8.7773 9.75 16.527 20.379 23.148 31.801z" fill="#010101"/>
  <path d="m18.676 210.8c4.4727-11.023 9.7578-21.617 15.66-31.82h440.43c0.63672 1.0781 1.3281 2.1484 1.9531 3.2617 10.57-1.8203 21.301-3.2617 32.348-3.2617 38.996 0 75.25 11.738 105.43 31.82z" fill="#010101"/>
  <path d="m56.02 147.16c9.2266-11.508 19.496-22.086 30.547-31.82h336.07c10.969 9.7031 21.105 20.363 30.27 31.82z" fill="#010101"/>
  <path d="m697.09 338.05h-694.88c-1.3008-10.438-2.2109-21.008-2.2109-31.785h688.89c3.6055 10.219 6.3828 20.844 8.2031 31.785z" fill="#010101"/>
  <path d="m688.89 433.51c-3.9219 11.129-8.8281 21.75-14.656 31.82h-618.21c-8.0273-10.012-15.227-20.664-21.688-31.82z" fill="#010101"/>
  <path d="m86.57 497.15h564.51c-10.816 12.062-23.031 22.828-36.582 31.82h-483.07c-16.172-8.9453-31.094-19.734-44.855-31.82z" fill="#010101"/>
 </g>
</svg>
