<?xml version="1.0" encoding="UTF-8"?>
<svg width="700pt" height="700pt" version="1.1" viewBox="0 0 700 700" xmlns="http://www.w3.org/2000/svg" xmlns:xlink="http://www.w3.org/1999/xlink">
 <g>
  <path d="m627.43 288.86c19.637 27.996 31.277 62.023 31.277 98.844 0 95.141-77.137 172.3-172.3 172.3h-229.73c-126.89 0-229.74-102.85-229.74-229.74 0-126.88 102.84-229.73 229.74-229.73 28.754 0 56.207 5.3828 81.574 15.035 23.488-67.238 87.281-115.56 162.52-115.56 10.855 0 21.426 1.125 31.691 3.043-1.8789 8.2578-2.9727 16.844-2.9727 25.676 0 63.445 51.438 114.87 114.86 114.87 8.8594 0 17.414-1.0938 25.691-2.9844 1.9258 10.293 3.0352 20.863 3.0352 31.711 0.003906 44.988-17.387 85.867-45.633 116.55zm-543.07 41.398c0 95.168 77.137 172.3 172.3 172.3h229.75c63.445 0 114.86-51.445 114.86-114.86 0-63.445-51.414-114.88-114.86-114.88-22.988 0-44.285 6.9219-62.234 18.539-17.684-76.34-85.781-133.41-167.52-133.41-95.16-0.011719-172.3 77.137-172.3 172.29zm280.74-202.42h0.03125-0.03125zm109.98-67.418c-41.629 9.5352-74.297 41.785-85.07 82.93 27.543 19.707 50.586 45.262 67.203 74.969 9.5352-1.6289 19.203-2.9453 29.199-2.9453 37.586 0 72.281 12.211 100.6 32.609 12.32-14.059 21.328-31.129 25.652-50.004-69.699-12.984-124.59-67.828-137.58-137.56z" fill="#010101"/>
 </g>
</svg>
