<?xml version="1.0" encoding="UTF-8"?>
<svg width="700pt" height="700pt" version="1.1" viewBox="0 0 700 700" xmlns="http://www.w3.org/2000/svg" xmlns:xlink="http://www.w3.org/1999/xlink">
 <g>
  <path d="m501.37 484.35h-15.137c0-20.777-4.8359-41.504-14.266-60.551h29.402c66.875 0 121.09-54.195 121.09-121.07 0-66.883-54.211-121.09-121.09-121.09-24.234 0-46.672 7.2773-65.609 19.527-18.633-80.465-90.41-140.61-176.56-140.61-100.31 0-181.62 81.32-181.62 181.62 0 90.125 65.676 164.68 151.73 178.96-9.6367 18.434-14.664 38.598-15.316 58.852-112.11-21.191-196.97-119.53-196.97-237.81 0-133.74 108.42-242.17 242.17-242.17 90.883 0 169.96 50.133 211.39 124.19 10.055-1.7305 20.238-3.1016 30.781-3.1016 100.31 0 181.62 81.32 181.62 181.65 0 100.31-81.289 181.61-181.61 181.61z" fill="#010101"/>
  <path d="m350.03 377.29 53.516 53.512c29.523 29.57 29.523 77.496 0 107.03-29.562 29.562-77.492 29.562-107.03 0-29.555-29.535-29.555-77.457 0-107.03z" fill="#010101"/>
 </g>
</svg>
