<?xml version="1.0" encoding="UTF-8"?>
<svg width="700pt" height="700pt" version="1.1" viewBox="0 0 700 700" xmlns="http://www.w3.org/2000/svg" xmlns:xlink="http://www.w3.org/1999/xlink">
 <g>
  <path d="m528.18 398.38v-55.758c30.414-17.617 50.898-50.418 50.898-88.082 0-56.23-45.586-101.82-101.8-101.82-20.391 0-39.258 6.1094-55.172 16.43-15.66-67.676-76.039-118.25-148.48-118.25-84.34 0-152.71 68.379-152.71 152.72 0 45.176 19.734 85.637 50.898 113.6v62.574c-60.789-35.234-101.8-100.84-101.8-176.17 0-112.46 91.164-203.62 203.62-203.62 76.418 0 142.93 42.145 177.76 104.42 8.4453-1.4375 17.008-2.6094 25.883-2.6094 84.34 0 152.72 68.383 152.72 152.73 0 66.473-42.539 122.86-101.81 143.84z" fill="#010101"/>
  <path d="m248.18 407.26c-14.051 0-12.73-11.387-12.73-25.43v-101.83c0-14.043-1.3203-25.457 12.73-25.457 14.055 0 12.73 11.414 12.73 25.457v101.83c0 14.039 1.3242 25.43-12.73 25.43z" fill="#010101"/>
  <path d="m248.18 458.17c14.055 0 25.445 11.414 25.445 25.457 0 14.074-11.391 25.457-25.445 25.457-14.051 0-25.457-11.387-25.457-25.457 0-14.043 11.395-25.457 25.457-25.457z" fill="#010101"/>
  <path d="m350 458.17c-14.051 0-12.73-11.387-12.73-25.457v-101.8c0-14.062-1.3203-25.457 12.73-25.457 14.062 0 12.73 11.395 12.73 25.457v101.8c-0.003906 14.07 1.3242 25.453-12.73 25.453z" fill="#010101"/>
  <path d="m375.46 534.54c0 14.059-11.398 25.457-25.457 25.457-14.062 0-25.457-11.398-25.457-25.457 0-14.059 11.395-25.457 25.457-25.457 14.059 0 25.457 11.398 25.457 25.457" fill="#010101"/>
  <path d="m451.82 407.26c-14.051 0-12.73-11.387-12.73-25.43v-101.83c0-14.043-1.3164-25.457 12.73-25.457 14.043 0 12.723 11.414 12.723 25.457v101.83c0.007813 14.039 1.3203 25.43-12.723 25.43z" fill="#010101"/>
  <path d="m451.82 458.17c14.043 0 25.457 11.414 25.457 25.457 0 14.074-11.414 25.457-25.457 25.457-14.051 0-25.457-11.387-25.457-25.457 0-14.043 11.406-25.457 25.457-25.457z" fill="#010101"/>
 </g>
</svg>
