<?xml version="1.0" encoding="UTF-8"?>
<svg width="700pt" height="700pt" version="1.1" viewBox="0 0 700 700" xmlns="http://www.w3.org/2000/svg" xmlns:xlink="http://www.w3.org/1999/xlink">
 <g>
  <path d="m546 438.25v-61.336c33.453-19.402 55.988-55.488 55.988-96.922 0-61.84-50.141-111.99-112-111.99-22.41 0-43.164 6.7188-60.668 18.074-17.227-74.441-83.648-130.09-163.33-130.09-92.785 0-167.99 75.234-167.99 168.02 0 49.691 21.707 94.215 56.008 124.95v68.832c-66.887-38.762-112.01-110.92-112.01-193.79 0-123.71 100.3-224.01 223.99-224.01 84.066 0 157.23 46.371 195.53 114.87 9.3008-1.582 18.719-2.8711 28.465-2.8711 92.793 0 168 75.23 168 167.99 0 73.133-46.816 135.15-111.99 158.26z" fill="#010101"/>
  <path d="m266 364c0 15.465-12.535 28.004-28.004 28.004-15.465 0-28-12.539-28-28.004s12.535-28.004 28-28.004c15.469 0 28.004 12.539 28.004 28.004" fill="#010101"/>
  <path d="m237.99 448.01c15.473 0 28.004 12.535 28.004 28.004s-12.531 27.977-28.004 27.977c-15.457 0-27.992-12.523-27.992-27.977 0.003906-15.48 12.539-28.004 27.992-28.004z" fill="#010101"/>
  <path d="m378.01 420.01c0 15.469-12.535 28.004-28 28.004-15.469 0-28.004-12.535-28.004-28.004 0-15.465 12.535-28 28.004-28 15.465 0 28 12.535 28 28" fill="#010101"/>
  <path d="m378.01 532c0 15.465-12.535 28.004-28 28.004-15.469 0-28.004-12.539-28.004-28.004s12.535-28.004 28.004-28.004c15.465 0 28 12.539 28 28.004" fill="#010101"/>
  <path d="m489.99 364c0 15.465-12.539 28.004-28.004 28.004-15.465 0-28.004-12.539-28.004-28.004s12.539-28.004 28.004-28.004c15.465 0 28.004 12.539 28.004 28.004" fill="#010101"/>
  <path d="m461.99 448.01c15.469 0 28.004 12.535 28.004 28.004s-12.535 27.977-28.004 27.977c-15.461 0-27.984-12.523-27.984-27.977 0-15.48 12.547-28.004 27.984-28.004z" fill="#010101"/>
 </g>
</svg>
