<?xml version="1.0" encoding="UTF-8"?>
<svg width="700pt" height="700pt" version="1.1" viewBox="0 0 700 700" xmlns="http://www.w3.org/2000/svg" xmlns:xlink="http://www.w3.org/1999/xlink">
 <g>
  <path d="m603.74 419.39v0.59375h-43.75c-12.891 0-23.34-10.434-23.34-23.336 0-12.875 10.453-23.309 23.34-23.309h35.004c12.891 0 23.32-10.465 23.32-23.336 0-12.891-10.434-23.336-23.32-23.336-12.891 0-23.336-10.453-23.336-23.34 0-12.883 10.445-23.336 23.336-23.336 1.6055 0 3.1797 0.15625 4.6797 0.48047 36.449 2.457 65.32 32.477 65.32 69.531 0 35.672-26.73 65.059-61.254 69.387z" fill="#010101"/>
  <path d="m478.34 279.99c-12.875 0-23.336-10.453-23.336-23.336 0-12.875 10.457-23.34 23.336-23.34 1.6172 0 3.168 0.15625 4.6953 0.48047 36.414 2.4648 65.297 32.477 65.297 69.523 0 35.703-26.73 65.078-61.246 69.398v0.61719h-101.91-163.5c-12.883 0-23.336 10.445-23.336 23.309 0 12.902 10.453 23.336 23.336 23.336h265.41v0.61719c34.516 4.3086 61.246 33.719 61.246 69.395 0 37.055-28.887 67.062-65.297 69.531-1.5234 0.29687-3.0977 0.48047-4.6953 0.48047-12.875 0-23.336-10.465-23.336-23.34 0-12.883 10.457-23.336 23.336-23.336 12.871 0 23.336-10.445 23.336-23.336 0-12.883-10.465-23.336-23.336-23.336h-265.42v-0.60547c-34.523-4.3203-61.258-33.719-61.258-69.406 0-12.305 3.4258-23.699 9.0195-33.719-73.105-25.293-125.68-94.559-125.68-176.26 0-103.08 83.566-186.66 186.66-186.66 70.055 0 131.02 38.645 162.94 95.727 7.75-1.3359 15.594-2.3945 23.727-2.3945 68.789 0 125.87 49.656 137.66 115.07-16.266-11.609-35.582-19.203-56.566-21.172-16.082-28.191-46.34-47.219-81.086-47.219-18.672 0-35.984 5.6016-50.562 15.051-14.379-62.027-69.703-108.39-136.11-108.39-77.324 0-140 62.676-140 140 0 77.305 62.676 140 140 140h142.34 114.32c12.871 0 23.336-10.453 23.336-23.34 0.003907-12.895-10.441-23.332-23.328-23.332z" fill="#010101"/>
 </g>
</svg>
